<?xml version="1.0" standalone="no"?><!DOCTYPE svg PUBLIC "-//W3C//DTD SVG 1.1//EN" "http://www.w3.org/Graphics/SVG/1.1/DTD/svg11.dtd"><svg t="1556096214354" class="icon" style="" viewBox="0 0 1024 1024" version="1.1" xmlns="http://www.w3.org/2000/svg" p-id="9087" xmlns:xlink="http://www.w3.org/1999/xlink" width="200" height="200"><defs><style type="text/css"></style></defs><path d="M909.696 85.333333H128c-39.552 0-85.333333 46.037333-85.333333 85.333334v682.666666a85.333333 85.333333 0 0 0 85.333333 85.333334h768a85.333333 85.333333 0 0 0 85.333333-85.333334V156.458667C981.333333 117.162667 949.248 85.333333 909.696 85.333333z m-307.712 141.354667h157.994667v40.490667h-107.989334V329.813333h96v40.32h-96V469.333333h-50.005333V226.688z m-96.298667 0h50.005334V469.333333h-50.005334V226.688zM264.021333 340.992c0-18.773333 2.432-35.498667 7.253334-50.090667s11.648-26.922667 20.48-36.906666 19.541333-17.578667 32.085333-22.826667 26.496-7.850667 41.813333-7.850667c15.786667 0 29.397333 1.962667 40.917334 5.930667s21.12 9.472 28.842666 16.597333 13.738667 15.616 18.090667 25.514667 7.168 20.736 8.490667 32.512h-48.64c-0.981333-6.101333-2.56-11.648-4.650667-16.597333s-5.034667-9.173333-8.704-12.672-8.192-6.186667-13.568-8.106667-11.818667-2.816-19.285333-2.816c-17.109333 0-30.122667 6.485333-38.997334 19.413333s-13.354667 32.128-13.354666 57.6v14.677334c0 25.429333 4.821333 44.672 14.506666 57.685333s23.850667 19.498667 42.496 19.498667c6.016 0 11.221333-0.384 15.658667-1.152s8.234667-1.749333 11.434667-2.901334a37.205333 37.205333 0 0 0 13.098666-7.936v-41.813333H366.506667v-36.906667h95.488v96.853334c-2.858667 3.456-6.826667 7.125333-11.818667 11.093333s-11.306667 7.594667-18.816 11.008-16.469333 6.229333-26.752 8.490667-22.101333 3.413333-35.413333 3.413333c-15.658667 0-29.952-2.602667-42.922667-7.765333s-24.021333-12.757333-33.237333-22.741334-16.426667-22.314667-21.461334-36.864-7.552-31.232-7.552-50.005333v-14.336zM170.666667 804.565333l170.666666-219.434666 121.856 146.730666 170.666667-219.904L853.333333 804.565333H170.666667z" fill="" p-id="9088"></path></svg>