<?xml version="1.0" standalone="no"?><!DOCTYPE svg PUBLIC "-//W3C//DTD SVG 1.1//EN" "http://www.w3.org/Graphics/SVG/1.1/DTD/svg11.dtd"><svg t="1556372692175" class="icon" style="" viewBox="0 0 1024 1024" version="1.1" xmlns="http://www.w3.org/2000/svg" p-id="4401" xmlns:xlink="http://www.w3.org/1999/xlink" width="200" height="200"><defs><style type="text/css"></style></defs><path d="M630.791 470.756c45.009-35.345 74.045-90.085 74.045-151.606 0-106.343-86.506-192.851-192.85-192.851-106.345 0-192.851 86.506-192.851 192.851 0 61.521 29.065 116.262 74.047 151.606C274.659 518.122 190.57 633.914 190.57 769.133v64.283c0 17.767 14.377 32.142 32.143 32.142h578.551c17.767 0 32.141-14.376 32.141-32.142v-64.283c0.001-135.252-84.058-251.011-202.612-298.377zM511.986 190.584c70.907 0 128.568 57.659 128.568 128.567s-57.662 128.566-128.568 128.566-128.57-57.661-128.57-128.567 57.662-128.567 128.569-128.567z m257.133 610.693H254.851v-32.144C254.851 627.353 370.204 512 512.017 512c141.781 0 257.101 115.353 257.101 257.133v32.143zM296.818 481.93c0.879-1.946 0.879-4.017 1.318-6.026 0.313-1.224 0.658-2.384 0.816-3.672 0.25-2.542 0.095-4.957-0.25-7.438-0.126-1.318 0.188-2.574-0.126-3.892-0.188-0.754-0.721-1.287-0.941-2.042-0.501-1.443-1.192-2.73-1.883-4.08-1.318-2.764-2.764-5.273-4.74-7.501-0.283-0.314-0.628-0.533-0.941-0.847a30.813 30.813 0 0 0-15.696-8.838c-29.19-13.7-51.665-48.227-51.665-86.27 0-44.761 30.32-83.304 73.762-93.757 17.263-4.176 27.873-21.533 23.73-38.797-4.207-17.264-21.627-27.747-38.797-23.73-72.413 17.452-122.98 81.735-122.98 156.284 0 40.68 15.475 78.816 41.779 107.818-83.648 43.348-138.201 130.041-138.201 228.13v49.719c0 17.767 14.376 32.141 32.141 32.141s32.141-14.376 32.141-32.141v-49.719c0-88.893 59.764-165.166 145.516-186.761 10.672-1.508 20.37-8.003 25.017-18.582z m526.823-22.789c26.303-29.003 41.776-67.14 41.776-107.818 0-72.601-48.903-136.445-118.93-155.246-17.107-4.584-34.747 5.555-39.393 22.693-4.614 17.169 5.556 34.779 22.694 39.393 41.997 11.269 71.347 49.594 71.347 93.162 0 38.043-22.444 72.508-57.19 88.043-3.891 1.696-7.313 4.05-10.263 7.126-0.25 0.283-0.566 0.472-0.817 0.754-2.009 2.228-3.453 4.803-4.803 7.596-0.659 1.35-1.38 2.605-1.851 4.017-0.219 0.722-0.754 1.287-0.942 2.041-0.313 1.318 0 2.575-0.125 3.893-0.346 2.479-0.501 4.896-0.251 7.437 0.158 1.287 0.501 2.448 0.817 3.672 0.438 2.009 0.438 4.081 1.317 6.026 4.646 10.579 14.344 17.077 25.014 18.582 85.753 21.597 145.518 97.868 145.518 186.761v49.719c0 17.767 14.376 32.141 32.141 32.141s32.14-14.376 32.14-32.141v-49.719c0.002-98.093-54.551-184.786-138.202-228.134z" fill="#ffffff" p-id="4402"></path></svg>