<?xml version="1.0" standalone="no"?><!DOCTYPE svg PUBLIC "-//W3C//DTD SVG 1.1//EN" "http://www.w3.org/Graphics/SVG/1.1/DTD/svg11.dtd"><svg t="1556374967465" class="icon" style="" viewBox="0 0 1024 1024" version="1.1" xmlns="http://www.w3.org/2000/svg" p-id="2462" xmlns:xlink="http://www.w3.org/1999/xlink" width="200" height="200"><defs><style type="text/css"></style></defs><path d="M584.533333 230.4h-64v290.133333H320v64h264.533333v-34.133333z" fill="#ffffff" p-id="2463"></path><path d="M512 8.533333C234.666667 8.533333 8.533333 234.666667 8.533333 512c0 81.066667 17.066667 157.866667 55.466667 226.133333 0 4.266667 4.266667 8.533333 8.533333 12.8 0 8.533333 4.266667 17.066667 12.8 25.6 0 4.266667 0 4.266667 4.266667 4.266667 4.266667 8.533333 8.533333 17.066667 12.8 21.333333 4.266667 8.533333 12.8 17.066667 21.333333 25.6l4.266667 4.266667c8.533333 8.533333 12.8 17.066667 21.333333 25.6 4.266667 4.266667 8.533333 8.533333 8.533334 12.8 93.866667 93.866667 221.866667 149.333333 358.4 149.333333 98.133333 0 196.266667-29.866667 277.333333-81.066666 8.533333-4.266667 17.066667-12.8 25.6-17.066667 21.333333-17.066667 38.4-29.866667 55.466667-51.2 93.866667-93.866667 145.066667-221.866667 145.066666-354.133333C1015.466667 234.666667 789.333333 8.533333 512 8.533333z m311.466667 814.933334c-17.066667 17.066667-29.866667 29.866667-51.2 42.666666-8.533333 4.266667-12.8 8.533333-21.333334 17.066667-68.266667 42.666667-153.6 68.266667-238.933333 68.266667-119.466667 0-226.133333-46.933333-311.466667-128l-8.533333-8.533334c-8.533333-8.533333-12.8-17.066667-21.333333-25.6l-4.266667-4.266666c-8.533333-8.533333-17.066667-17.066667-21.333333-25.6-4.266667-4.266667-8.533333-8.533333-12.8-17.066667l-4.266667-4.266667c4.266667-4.266667 0-12.8-4.266667-17.066666-4.266667-4.266667-4.266667-8.533333-4.266666-8.533334-29.866667-59.733333-46.933333-128-46.933334-196.266666C72.533333 268.8 268.8 72.533333 512 72.533333S951.466667 268.8 951.466667 512c0 119.466667-46.933333 226.133333-128 311.466667z" fill="#ffffff" p-id="2464"></path></svg>