<?xml version="1.0" standalone="no"?><!DOCTYPE svg PUBLIC "-//W3C//DTD SVG 1.1//EN" "http://www.w3.org/Graphics/SVG/1.1/DTD/svg11.dtd"><svg t="1556373296832" class="icon" style="" viewBox="0 0 1024 1024" version="1.1" xmlns="http://www.w3.org/2000/svg" p-id="1418" xmlns:xlink="http://www.w3.org/1999/xlink" width="200" height="200"><defs><style type="text/css"></style></defs><path d="M810.666667 64c58.837333 0 106.666667 47.872 106.666666 106.666667v682.666666c0 58.837333-47.829333 106.666667-106.666666 106.666667H213.333333A106.794667 106.794667 0 0 1 106.666667 853.333333V170.666667c0-58.794667 47.872-106.666667 106.666666-106.666667h597.333334M810.666667 0H213.333333a170.666667 170.666667 0 0 0-170.666666 170.666667v682.666666a170.666667 170.666667 0 0 0 170.666666 170.666667h597.333334a170.666667 170.666667 0 0 0 170.666666-170.666667V170.666667a170.666667 170.666667 0 0 0-170.666666-170.666667z" p-id="1419" fill="#ffffff"></path><path d="M758.656 64v361.088l-82.645333-62.72-38.912-29.568-38.741334 29.781333-80.981333 62.208V64h241.28m64-64h-369.322667v554.666667l184.021334-141.354667 185.344 140.672V0h-0.042667z" p-id="1420" fill="#ffffff"></path></svg>