<?xml version="1.0" standalone="no"?><!DOCTYPE svg PUBLIC "-//W3C//DTD SVG 1.1//EN" "http://www.w3.org/Graphics/SVG/1.1/DTD/svg11.dtd"><svg t="1556096286663" class="icon" style="" viewBox="0 0 1024 1024" version="1.1" xmlns="http://www.w3.org/2000/svg" p-id="12181" xmlns:xlink="http://www.w3.org/1999/xlink" width="200" height="200"><defs><style type="text/css"></style></defs><path d="M863.594 245.432v715.817H271.305c-61.206 0-110.824-49.618-110.824-110.824V63.609h512.095l191.018 181.823z" fill="#D63C3C" p-id="12182"></path><path d="M672.576 63.609V264.37h191.018v-18.94z" fill="#A50E0E" p-id="12183"></path><path d="M672.576 63.609v181.823h191.018z" fill="#F76969" p-id="12184"></path><path d="M686.236 439.996c-9.772-5.192-27.684-4.17-53.29 3.07-17.31 4.93-37.635 12.626-58.563 22.177-11.456-2.745-23.374-5.875-33.472-10.932-27.193-13.548-53.157-35.867-73.263-62.932-0.116-3.05-0.256-5.727-0.423-8.432 0 0-8.245-71.685-18.256-93.769-1.379-3.022-1.918-3.863-3.5-6.072l-1.84-2.365c-5.495-6.56-14.257-12.63-24.15-9.21l-6.098 1.6c-11.177 3.32-18.599 11.75-18.453 20.998 0.686 28.98 20.109 66.85 49.144 114.76l-0.974 9.503c-2.692 26.629-7.78 54.142-12.282 78.437l-0.584 3.161c-4.736 25.52-9.44 47.389-14.003 66.093l-8.108 7.94c-0.599 0.583-14.482 14.19-17.648 17.676-26.984 29.334-42.114 58.02-40.47 76.73 0.522 5.975 3.514 12.93 10.348 14.525l10.689 1.913c4.638 0.82 9.194 0.584 13.551-0.71 23.362-6.94 41.836-44.096 59.823-120.393 38.957-26.859 84.607-53.12 125.737-72.337 38.292 8.73 82.432 9.572 107.903 2.006 4.517-1.341 8.288-2.924 11.205-4.716 4.505-2.746 7.789-6.747 9.177-11.284 2.732-8.907 0.683-19.44-3.76-29.53-1.334-2.998-4.955-6.105-8.426-7.926l-0.014 0.02zM374.245 667.952c0.789-12.917 10.81-40.953 29.683-68.784 1.18-1.738 3.968-6.499 6.51-10.916-13.718 49.334-26.262 71.084-36.193 79.7z m46.65-383.928c7.51-2.231 17.403 15.435 23.024 33.06 5.621 17.626 5.18 31.326 2.763 42.068-8.32-12.37-16.762-33.263-20.94-47.327 0 0-8.302-26.775-4.847-27.801z m27.938 255.427c2.442-10.922 4.967-22.408 7.42-34.528 5.936-29.656 8.547-52.27 10.025-70.655 19.538 19.311 41.162 34.226 64.392 44.423a185.696 185.696 0 0 0 9.103 3.714c-35.543 18.694-65.47 37.471-90.922 57.04l-0.018 0.006z m237.407-72.837c-1.876 2.12-8.218 4.91-12.451 6.167-13.674 4.061-32.447 2.834-59.184-0.288 8.922-3.383 17.164-6.197 24.656-8.423 13.71-4.072 17.767-5.335 32.192-5.9 14.423-0.565 16.663 6.326 14.791 8.463l-0.004-0.019z" fill="#A50E0E" p-id="12185"></path><path d="M92.854 494.316h838.292v356.067H92.854z" fill="#F76969" p-id="12186"></path><path d="M330.631 559.866c23.43 0 41.165 6.06 53.205 18.175s18.06 29.093 18.06 50.92c0 21.832-6.02 38.86-18.06 51.083-12.04 12.229-29.775 18.23-53.205 18.01h-70.94v95.618h-30.914V559.867h101.854z m-10.413 111.992c17.572 0.22 30.426-3.382 38.561-10.806 8.136-7.42 12.203-18.118 12.203-32.091 0-13.968-4.067-24.61-12.203-31.927-8.135-7.312-20.989-10.97-38.56-10.97h-60.527v85.794h60.526z m199.15-111.992c35.795 0 63.342 9.17 82.653 27.508 19.307 18.337 28.963 46.283 28.963 83.829 0 19.646-2.172 37.059-6.508 52.23-4.342 15.175-11.064 27.946-20.176 38.311-9.111 10.371-20.72 18.286-34.819 23.74-14.104 5.46-30.806 8.187-50.113 8.187h-79.726V559.866h79.726z m2.603 207.61c3.468 0 7.81-0.273 13.017-0.82 5.206-0.541 10.738-1.852 16.597-3.93 5.857-2.07 11.658-5.075 17.408-9.005 5.746-3.93 10.902-9.276 15.457-16.045 4.556-6.764 8.298-15.227 11.227-25.378 2.928-10.152 4.393-22.432 4.393-36.84 0-13.967-1.357-26.467-4.068-37.494-2.715-11.021-7.159-20.41-13.342-28.162-6.183-7.746-14.155-13.64-23.916-17.682-9.764-4.037-21.804-6.058-36.122-6.058h-52.066v181.412h51.415z m299.377-207.61v26.198H699.644v74.333H806.38v26.197H699.644v107.08H668.73V559.867h152.618z" fill="#FFFFFF" p-id="12187"></path></svg>