<?xml version="1.0" standalone="no"?><!DOCTYPE svg PUBLIC "-//W3C//DTD SVG 1.1//EN" "http://www.w3.org/Graphics/SVG/1.1/DTD/svg11.dtd"><svg t="1556096173191" class="icon" style="" viewBox="0 0 1024 1024" version="1.1" xmlns="http://www.w3.org/2000/svg" p-id="6774" xmlns:xlink="http://www.w3.org/1999/xlink" width="200" height="200"><defs><style type="text/css"></style></defs><path d="M676.297143 0H145.609143C130.834286 0 118.857143 11.977143 118.857143 35.218286V1005.714286c0 6.308571 11.977143 18.285714 26.752 18.285714h732.781714c14.774857 0 26.752-11.977143 26.752-18.285714V237.312c0-12.726857-1.700571-16.822857-4.699428-19.84L687.670857 4.699429A16.164571 16.164571 0 0 0 676.297143 0z" fill="#E9E9E0" p-id="6775"></path><path d="M878.390857 1024H145.609143A26.752 26.752 0 0 1 118.857143 997.248V713.142857h786.285714v284.105143c0 14.774857-11.977143 26.752-26.752 26.752z" fill="#659C35" p-id="6776"></path><path d="M685.714286 2.761143V219.428571h216.667428z" fill="#D9D7CA" p-id="6777"></path><path d="M317.897143 969.142857h-30.006857V784.896h52.992c7.826286 0 15.579429 1.243429 23.241143 3.748571 7.661714 2.505143 14.537143 6.253714 20.626285 11.245715 6.089143 4.992 11.008 11.044571 14.756572 18.121143s5.632 15.030857 5.632 23.881142c0 9.344-1.590857 17.792-4.754286 25.380572a53.028571 53.028571 0 0 1-13.257143 19.126857c-5.668571 5.156571-12.507429 9.161143-20.498286 11.995429s-16.841143 4.242286-26.496 4.242285h-22.253714V969.142857z m0-161.499428v72.996571h27.501714c3.657143 0 7.277714-0.621714 10.88-1.883429 3.584-1.243429 6.875429-3.291429 9.874286-6.125714 2.998857-2.834286 5.412571-6.784 7.241143-11.867428 1.828571-5.083429 2.742857-11.373714 2.742857-18.870858 0-2.998857-0.420571-6.473143-1.243429-10.368a29.933714 29.933714 0 0 0-5.12-11.245714 30.299429 30.299429 0 0 0-10.88-8.996571c-4.662857-2.413714-10.843429-3.620571-18.505143-3.620572h-22.491428zM572.635429 784.896V969.142857h-30.500572l-72.246857-126.994286V969.142857h-30.500571V784.896h30.500571l72.246857 126.994286v-126.994286h30.500572zM752.64 874.148571v71.241143c-3.84 4.845714-8.118857 8.777143-12.873143 11.867429s-9.746286 5.632-14.994286 7.625143-10.678857 3.419429-16.256 4.260571a111.469714 111.469714 0 0 1-16.621714 1.243429c-11.008 0-21.12-1.993143-30.372571-5.997715s-17.334857-9.910857-24.246857-17.755428c-6.912-7.844571-12.342857-17.664-16.256-29.494857-3.913143-11.830857-5.869714-25.508571-5.869715-40.996572s1.956571-29.129143 5.869715-40.868571c3.913143-11.757714 9.325714-21.540571 16.256-29.366857a69.12 69.12 0 0 1 24.374857-17.883429 74.404571 74.404571 0 0 1 30.244571-6.125714c10.002286 0 19.328 1.664 27.995429 4.992 8.667429 3.346286 16.402286 8.338286 23.241143 14.994286l-20.754286 18.505142a35.675429 35.675429 0 0 0-13.750857-10.496 41.179429 41.179429 0 0 0-16-3.254857c-6.162286 0-12.050286 1.152-17.627429 3.492572a37.76 37.76 0 0 0-14.994286 11.867428c-4.425143 5.595429-7.881143 12.781714-10.368 21.632s-3.84 19.657143-4.004571 32.493715c0.164571 12.507429 1.462857 23.332571 3.876571 32.493714 2.413714 9.161143 5.741714 16.658286 10.002286 22.491428s9.088 10.166857 14.500572 13.001143c5.412571 2.834286 11.117714 4.242286 17.133714 4.242286 1.828571 0 4.278857-0.128 7.369143-0.384a89.782857 89.782857 0 0 0 9.252571-1.243429 60.16 60.16 0 0 0 8.868572-2.377142 12.708571 12.708571 0 0 0 6.253714-4.242286v-45.494857h-31.250286v-20.498286h61.001143z" fill="#FFFFFF" p-id="6778"></path><path d="M346.166857 263.881143m-83.547428 0a83.547429 83.547429 0 1 0 167.094857 0 83.547429 83.547429 0 1 0-167.094857 0Z" fill="#F3D55B" p-id="6779"></path><path d="M118.857143 713.142857h786.285714V512l-182.857143-173.714286L530.285714 548.571429l-100.260571-100.260572z" fill="#88C057" p-id="6780"></path></svg>