<?xml version="1.0" standalone="no"?><!DOCTYPE svg PUBLIC "-//W3C//DTD SVG 1.1//EN" "http://www.w3.org/Graphics/SVG/1.1/DTD/svg11.dtd"><svg t="1556096121289" class="icon" style="" viewBox="0 0 1064 1024" version="1.1" xmlns="http://www.w3.org/2000/svg" p-id="5558" xmlns:xlink="http://www.w3.org/1999/xlink" width="207.8125" height="200"><defs><style type="text/css"></style></defs><path d="M0 286.72h1064.96v327.68H0z" fill="#F95F5D" p-id="5559"></path><path d="M1064.96 327.68V62.6688C1064.96 28.8768 1034.40384 0 998.72768 0H66.23232C30.59712 0 0 28.91776 0 62.6688V327.68h1064.96z" fill="#55C7F7" p-id="5560"></path><path d="M0 696.32v265.0112C0 995.1232 30.43328 1024 65.9456 1024h933.0688c35.51232 0 65.9456-28.91776 65.9456-62.6688V696.32H0z" fill="#7ECF3B" p-id="5561"></path><path d="M409.6 0h286.72v1024h-286.72z" fill="#FDAF42" p-id="5562"></path><path d="M680.18176 393.8304v159.90784h-254.44352V393.8304h254.44352zM721.7152 327.68H384.2048c-5.16096 0-15.5648 5.5296-15.5648 16.54784v253.62432c0 5.5296 5.20192 16.54784 15.5648 16.54784h337.5104c5.16096 0 15.5648-5.5296 15.5648-16.54784V344.22784c-5.20192-11.0592-10.40384-16.54784-15.5648-16.54784z" fill="#FFFFFF" p-id="5563"></path></svg>