<?xml version="1.0" standalone="no"?><!DOCTYPE svg PUBLIC "-//W3C//DTD SVG 1.1//EN" "http://www.w3.org/Graphics/SVG/1.1/DTD/svg11.dtd"><svg t="1557211322042" class="icon" style="" viewBox="0 0 1024 1024" version="1.1" xmlns="http://www.w3.org/2000/svg" p-id="2203" xmlns:xlink="http://www.w3.org/1999/xlink" width="200" height="200"><defs><style type="text/css"></style></defs><path d="M511.339456 127.531582c-211.56037 0-383.062396 171.511235-383.062396 383.071605 0 64.073294 12.818957 118.649284 40.362266 171.231873 0.970094 2.481518 2.12643 4.859681 3.606131 7.039323 0.016373 0.016373 0.032746 0.041956 0.032746 0.058328l0.017396-0.008186c6.27389 9.181103 16.798595 15.217586 28.751834 15.217586 19.246343 0 34.82004-15.59007 34.82004-34.821063l-0.305969-3.229554c0-6.256494-1.784646-12.038174-4.675486-17.11275l0.051165-0.045025c-19.178805-40.608883-34.054607-90.946338-34.054607-138.840138 0-173.391049 140.556223-313.948295 313.947272-313.948295 173.390026 0 313.948295 140.557246 313.948295 313.948295 0 173.387979-140.557246 313.950342-313.948295 313.950342-69.505004 0-136.052652-25.529443-188.063213-63.751976l-0.051165 0.051165c-5.984295-4.879124-13.533224-7.93267-21.86396-7.93267-19.247366 0-34.821063 15.582907-34.821063 34.822087l0.304945 3.228531c0 9.904581 4.182252 18.787902 10.815323 25.131377l-0.01842 0.024559c0.153496 0.11154 0.290619 0.203638 0.425695 0.315178 2.039449 1.886977 4.319375 3.467985 6.766101 4.830005 63.72537 47.335075 141.323703 72.912613 227.015364 72.912613 211.577766 0 383.080815-171.502026 383.080815-383.071605C894.421294 299.042817 722.917222 127.531582 511.339456 127.531582z" p-id="2204" fill="#ffffff"></path><path d="M354.273211 385.737318c-20.658506 0-37.405935 16.755616-37.405935 37.414121l-0.153496 1.130753c0 20.657482 16.747429 37.414121 37.422308 37.414121 20.675902 0 37.405935-16.756639 37.405935-37.414121l0.153496-1.122567C391.694495 402.492934 374.948089 385.737318 354.273211 385.737318z" p-id="2205" fill="#ffffff"></path><path d="M667.523611 461.696314c20.675902 0 37.405935-16.756639 37.405935-37.414121l0.151449-1.122567c0-20.666692-16.746406-37.422308-37.422308-37.422308-20.657482 0-37.403888 16.755616-37.403888 37.414121l-0.152473 1.130753C630.102327 444.939675 646.848733 461.696314 667.523611 461.696314z" p-id="2206" fill="#ffffff"></path><path d="M611.942735 617.487519c-7.463995 10.388605-18.088984 19.536962-28.358885 27.02654-20.522406 14.95255-46.909379 22.833031-72.193229 22.833031-25.010627 0-50.547233-8.033977-70.847581-22.646789-10.183943-7.346315-19.790742-16.312524-26.967188-26.668383-7.105838-10.296507-9.860579-22.706141-14.894222-33.997302-5.678326-12.725836-18.497283-21.875217-32.949436-21.875217-19.926842 0-36.063357 16.145725-36.063357 36.055171l-0.135076 1.096984c0 0.840134 0.186242 1.63115 0 2.473331 0.102331 0.36532 0.255827 0.714268 0.357134 1.079588 0.610914 6.070252 2.550079 11.756765 5.780657 16.559141 27.884071 70.254064 95.008864 117.563556 175.71907 117.563556 81.323167 0 150.744259-50.707892 178.50758-122.202203 2.687202-4.361331 4.38589-9.328459 5.033643-14.649652 0.169869-0.577145 0.38988-1.12973 0.169869-1.717108 0.052189-0.840134 0.237407-1.648546 0.237407-2.505054l0.152473-1.081635c0-20.00359-16.219403-36.216853-36.214806-36.216853-10.252505 0-20.249183 4.463662-27.066449 12.150738-3.453658 3.873214-6.105045 8.550747-7.602142 13.542434C621.312126 595.344197 618.948289 607.737458 611.942735 617.487519z" p-id="2207" fill="#ffffff"></path></svg>