<?xml version="1.0" standalone="no"?><!DOCTYPE svg PUBLIC "-//W3C//DTD SVG 1.1//EN"
        "http://www.w3.org/Graphics/SVG/1.1/DTD/svg11.dtd">
<svg t="1555599473688" class="icon" style="" viewBox="0 0 1024 1024" version="1.1" xmlns="http://www.w3.org/2000/svg"
     p-id="8753" xmlns:xlink="http://www.w3.org/1999/xlink" width="200" height="200">
    <defs>
        <style type="text/css"></style>
    </defs>
    <path d="M936.998117 1023.653086H86.364021a78.58524 78.58524 0 0 1-85.08532-69.748052V442.078491a78.58524 78.58524 0 0 1 85.08532-69.821087h85.012285V279.211312C171.376306 125.254355 324.01864 0 511.644552 0s340.268245 125.254355 340.268245 279.211312v93.046092h85.08532a78.58524 78.58524 0 0 1 85.08532 69.821087v511.826543a78.58524 78.58524 0 0 1-85.08532 69.748052z m-170.17064-744.441774C766.827477 163.743594 652.382244 69.821087 511.644552 69.821087S256.461626 163.743594 256.461626 279.211312v93.046092h510.365851V279.211312z m170.17064 162.867179H86.364021v511.826543h850.634096V442.078491zM511.644552 570.108161a39.29262 39.29262 0 0 1 42.579177 34.910543v186.092185a39.29262 39.29262 0 0 1-42.579177 34.910544 39.29262 39.29262 0 0 1-42.506143-34.910544V605.018704A39.29262 39.29262 0 0 1 511.644552 570.108161z"
          p-id="8754" fill="#707070"></path>
</svg>
