<?xml version="1.0" standalone="no"?><!DOCTYPE svg PUBLIC "-//W3C//DTD SVG 1.1//EN" "http://www.w3.org/Graphics/SVG/1.1/DTD/svg11.dtd"><svg t="1556339057292" class="icon" style="" viewBox="0 0 1024 1024" version="1.1" xmlns="http://www.w3.org/2000/svg" p-id="2663" xmlns:xlink="http://www.w3.org/1999/xlink" width="200" height="200"><defs><style type="text/css"></style></defs><path d="M725.333333 128c-168.448 0-213.333333 85.333333-213.333333 85.333333s-44.885333-85.333333-213.333333-85.333333C267.050667 128 239.232 128 213.333333 128l0 85.333333c27.904 0 58.581333 0 85.333333 0 71.424 0 170.666667 48.896 170.666667 128 0 79.104 0 341.333333 0 341.333333l42.666667 0 42.666667 0c0 0 0-262.229333 0-341.333333 0-79.104 99.242667-128 170.666667-128 71.424 0 170.666667 0 170.666667 0l0 597.333333c0 0-28.117333 0-170.666667 0-142.592 0-213.333333 85.333333-213.333333 85.333333s-70.741333-85.333333-213.333333-85.333333-170.666667 0-170.666667 0L128 213.333333c0-23.552-19.114667-42.666667-42.666667-42.666667C61.781333 170.666667 42.666667 189.781333 42.666667 213.333333l0 682.666667c0 0 169.386667 0 256 0 86.613333 0 213.333333 85.333333 213.333333 85.333333s126.72-85.333333 213.333333-85.333333 256 0 256 0L981.333333 128C981.333333 128 893.781333 128 725.333333 128z" p-id="2664"></path></svg>