<?xml version="1.0" standalone="no"?><!DOCTYPE svg PUBLIC "-//W3C//DTD SVG 1.1//EN" "http://www.w3.org/Graphics/SVG/1.1/DTD/svg11.dtd"><svg t="1556372241116" class="icon" style="" viewBox="0 0 1024 1024" version="1.1" xmlns="http://www.w3.org/2000/svg" p-id="3520" xmlns:xlink="http://www.w3.org/1999/xlink" width="200" height="200"><defs><style type="text/css"></style></defs><path d="M925.951864 684.861499l58.863283 32.758697a29.175714 29.175714 0 0 1 0 51.185463l-102.370927 57.839574L535.918633 1016.543302a57.839574 57.839574 0 0 1-56.815864 0l-336.800349-190.409924L38.907784 767.78195a28.663859 28.663859 0 0 1 0-51.185463l58.863283-32.758697L246.720765 767.78195l234.941277 131.546641a57.839574 57.839574 0 0 0 56.815864 0L777.002166 767.78195z m0-230.846439l58.863283 32.758696a29.175714 29.175714 0 0 1 0 51.185464l-102.370927 57.839573-346.525587 189.386214a57.839574 57.839574 0 0 1-56.815864 0l-336.800349-189.898068-102.370926-57.839574a28.663859 28.663859 0 0 1 0-51.185463l58.863282-32.758697 147.925989 83.94416 234.941277 131.546641a57.839574 57.839574 0 0 0 56.815864 0l238.52426-133.082205zM97.771067 338.847767L38.907784 307.11278a29.175714 29.175714 0 0 1 0-51.185463L484.73317 7.165965a57.839574 57.839574 0 0 1 56.815864 0L984.815147 255.927317a28.663859 28.663859 0 0 1 0 51.185463l-58.863283 32.758697-148.949698 80.873032-241.083533 133.082204a57.839574 57.839574 0 0 1-56.815864 0L246.720765 422.280072z" fill="#ffffff" p-id="3521"></path></svg>