<?xml version="1.0" standalone="no"?><!DOCTYPE svg PUBLIC "-//W3C//DTD SVG 1.1//EN" "http://www.w3.org/Graphics/SVG/1.1/DTD/svg11.dtd"><svg t="1556096641058" class="icon" style="" viewBox="0 0 1031 1024" version="1.1" xmlns="http://www.w3.org/2000/svg" p-id="1516" xmlns:xlink="http://www.w3.org/1999/xlink" width="201.3671875" height="200"><defs><style type="text/css"></style></defs><path d="M936.228571 234.057143c-51.2-58.514286-124.342857-87.771429-197.485714-87.771429-43.885714 0-80.457143 7.314286-109.714286 21.942857-36.571429 14.628571-65.828571 36.571429-95.085714 58.514286L270.628571 490.057143c-36.571429 36.571429-51.2 73.142857-51.2 117.028571 0 43.885714 14.628571 80.457143 51.2 117.028572s73.142857 43.885714 117.028572 43.885714c43.885714 0 87.771429-14.628571 117.028571-43.885714L731.428571 490.057143c7.314286-7.314286 14.628571-14.628571 14.628572-29.257143 0-7.314286-7.314286-21.942857-14.628572-29.257143-7.314286-7.314286-14.628571-7.314286-29.257142-7.314286s-21.942857 0-29.257143 7.314286L438.857143 665.6c-14.628571 14.628571-36.571429 21.942857-58.514286 21.942857-21.942857 0-43.885714-7.314286-58.514286-21.942857-14.628571-14.628571-21.942857-36.571429-21.942857-58.514286 0-21.942857 7.314286-43.885714 21.942857-58.514285L585.142857 285.257143c36.571429-36.571429 87.771429-58.514286 146.285714-58.514286 51.2 0 102.4 21.942857 146.285715 58.514286 36.571429 36.571429 58.514286 87.771429 58.514285 146.285714 0 51.2-21.942857 102.4-58.514285 138.971429l-285.257143 277.942857c-58.514286 58.514286-131.657143 87.771429-212.114286 87.771428-80.457143 0-153.6-29.257143-212.114286-87.771428-58.514286-58.514286-87.771429-131.657143-87.771428-212.114286 0-80.457143 29.257143-153.6 87.771428-212.114286l365.714286-358.4c7.314286-7.314286 14.628571-14.628571 14.628572-29.257142 0-7.314286-7.314286-21.942857-14.628572-29.257143-7.314286 0-14.628571-7.314286-29.257143-7.314286s-21.942857 7.314286-29.257143 14.628571l-365.714285 358.4C73.142857 409.6 51.2 453.485714 29.257143 497.371429c-21.942857 43.885714-29.257143 95.085714-29.257143 146.285714s7.314286 95.085714 29.257143 146.285714c21.942857 43.885714 51.2 87.771429 87.771428 124.342857s80.457143 65.828571 124.342858 80.457143c43.885714 21.942857 95.085714 29.257143 146.285714 29.257143s95.085714-7.314286 146.285714-29.257143c43.885714-21.942857 87.771429-43.885714 124.342857-80.457143l285.257143-277.942857c29.257143-29.257143 51.2-58.514286 65.828572-95.085714 14.628571-36.571429 21.942857-73.142857 21.942857-109.714286-14.628571-73.142857-43.885714-146.285714-95.085715-197.485714z" fill="" p-id="1517"></path></svg>