<?xml version="1.0" standalone="no"?><!DOCTYPE svg PUBLIC "-//W3C//DTD SVG 1.1//EN" "http://www.w3.org/Graphics/SVG/1.1/DTD/svg11.dtd"><svg t="1556345332154" class="icon" style="" viewBox="0 0 1024 1024" version="1.1" xmlns="http://www.w3.org/2000/svg" p-id="2222" xmlns:xlink="http://www.w3.org/1999/xlink" width="200" height="200"><defs><style type="text/css"></style></defs><path d="M738.986667 554.666667a170.666667 170.666667 0 1 0 170.666666 170.666666 170.666667 170.666667 0 0 0-170.666666-170.666666z m120.746666 190.293333l-27.733333 5.546667a8.96 8.96 0 0 0-6.826667 5.973333 60.586667 60.586667 0 0 1-3.413333 7.68 9.813333 9.813333 0 0 0 0 8.96l15.786667 23.466667a8.533333 8.533333 0 0 1 0 11.52l-14.933334 15.36a9.813333 9.813333 0 0 1-11.52 0l-24.32-12.8a9.386667 9.386667 0 0 0-8.96 0l-7.68 2.986666a8.96 8.96 0 0 0-5.546666 6.826667l-5.546667 28.16a8.96 8.96 0 0 1-8.96 7.253333h-21.76a8.96 8.96 0 0 1-8.96-7.253333l-5.546667-28.16a10.666667 10.666667 0 0 0-5.973333-6.826667l-7.253333-2.986666a9.386667 9.386667 0 0 0-8.96 0l-23.893334 15.786666a9.813333 9.813333 0 0 1-11.52 0l-16.213333-18.346666a8.96 8.96 0 0 1 0-11.52l15.786667-23.466667a9.386667 9.386667 0 0 0 0-8.96l-2.986667-7.68a10.666667 10.666667 0 0 0-6.826667-5.973333l-28.16-5.546667a8.96 8.96 0 0 1-7.253333-8.96v-21.333333a8.96 8.96 0 0 1 7.253333-8.96l28.16-5.546667a10.666667 10.666667 0 0 0 6.826667-5.973333 57.173333 57.173333 0 0 1 2.986667-7.68 9.386667 9.386667 0 0 0 0-8.96l-15.786667-23.466667a8.96 8.96 0 0 1 0-11.52l15.36-15.36a9.813333 9.813333 0 0 1 11.52 0l23.893333 15.786667a9.386667 9.386667 0 0 0 8.96 0l7.253334-2.986667a10.666667 10.666667 0 0 0 5.973333-6.826667l5.546667-28.16a8.96 8.96 0 0 1 8.96-7.253333h21.76a8.96 8.96 0 0 1 8.96 7.253333l5.546666 28.16a8.96 8.96 0 0 0 5.546667 6.826667l7.68 2.986667a9.386667 9.386667 0 0 0 8.96 0l23.466667-15.786667a10.24 10.24 0 0 1 11.946666 0l14.933334 15.36a8.533333 8.533333 0 0 1 0 11.52l-15.786667 23.466667a9.813333 9.813333 0 0 0 0 8.96 60.586667 60.586667 0 0 1 3.413333 7.68 8.96 8.96 0 0 0 6.826667 5.973333l27.733333 5.546667a8.96 8.96 0 0 1 7.253334 8.96v21.333333a8.96 8.96 0 0 1-7.253334 8.96z m-120.746666-74.666667a55.04 55.04 0 1 0 45.653333 85.333334 54.186667 54.186667 0 0 0-6.826667-69.12 55.466667 55.466667 0 0 0-38.826666-16.213334z m0 0" fill="#666666" p-id="2223"></path><path d="M384 86.186667m0 21.333333l0 128q0 21.333333-21.333333 21.333333l0 0q-21.333333 0-21.333334-21.333333l0-128q0-21.333333 21.333334-21.333333l0 0q21.333333 0 21.333333 21.333333Z" fill="#666666" p-id="2224"></path><path d="M682.666667 86.186667m0 21.333333l0 128q0 21.333333-21.333334 21.333333l0 0q-21.333333 0-21.333333-21.333333l0-128q0-21.333333 21.333333-21.333333l0 0q21.333333 0 21.333334 21.333333Z" fill="#666666" p-id="2225"></path><path d="M768 170.666667H256a85.333333 85.333333 0 0 0-85.333333 85.333333v554.666667a85.333333 85.333333 0 0 0 85.333333 85.333333h358.826667a213.333333 213.333333 0 0 1 125.866666-384 208.64 208.64 0 0 1 112.64 33.28V256a85.333333 85.333333 0 0 0-85.333333-85.333333z" fill="#666666" p-id="2226"></path><path d="M363.093333 423.68a11.093333 11.093333 0 0 1-14.933333 0L287.573333 363.093333a11.093333 11.093333 0 0 1 0-14.933333 10.666667 10.666667 0 0 1 15.36 0l60.16 60.16a10.666667 10.666667 0 0 1 0 15.36z" fill="#FFFFFF" p-id="2227"></path><path d="M466.346667 320.426667L363.093333 423.68a11.093333 11.093333 0 0 1-14.933333 0 10.666667 10.666667 0 0 1 0-15.36l102.826667-102.826667a10.666667 10.666667 0 0 1 15.36 0 11.093333 11.093333 0 0 1 0 14.933334z" fill="#FFFFFF" p-id="2228"></path><path d="M366.08 540.16H295.253333a10.666667 10.666667 0 1 1 0-21.333333h70.826667a10.666667 10.666667 0 1 1 0 21.333333zM547.413333 540.16h-70.826666a10.666667 10.666667 0 1 1 0-21.333333h70.826666a10.666667 10.666667 0 1 1 0 21.333333z" fill="#FFFFFF" p-id="2229"></path></svg>