<?xml version="1.0" standalone="no"?><!DOCTYPE svg PUBLIC "-//W3C//DTD SVG 1.1//EN" "http://www.w3.org/Graphics/SVG/1.1/DTD/svg11.dtd"><svg t="1556346016689" class="icon" style="" viewBox="0 0 1024 1024" version="1.1" xmlns="http://www.w3.org/2000/svg" p-id="2439" xmlns:xlink="http://www.w3.org/1999/xlink" width="200" height="200"><defs><style type="text/css"></style></defs><path d="M704 192 128 192C57.28 192 0 249.28 0 320l0 576c0 70.72 57.28 128 128 128l576 0c70.72 0 128-57.344 128-128L832 320C832 249.28 774.72 192 704 192zM704 832c0 35.328-28.672 64-64 64L192 896c-35.328 0-64-28.672-64-64L128 384c0-35.328 28.672-64 64-64l448 0c35.328 0 64 28.672 64 64L704 832zM576 448 256 448c0 0 0 0 0 0C220.672 448 192 476.672 192 512s28.672 64 64 64c0 0 0 0 0 0l320 0c35.328 0 64-28.672 64-64S611.328 448 576 448zM896 0 320 0C249.28 0 192 57.28 192 128l576 0c70.72 0 128 57.28 128 128l0 576c70.72 0 128-57.28 128-128L1024 128C1024 57.28 966.72 0 896 0zM576 640 256 640c0 0 0 0 0 0-35.328 0-64 28.672-64 64 0 35.328 28.672 64 64 64 0 0 0 0 0 0l320 0c35.328 0 64-28.672 64-64C640 668.672 611.328 640 576 640z" p-id="2440"></path></svg>