<?xml version="1.0" standalone="no"?><!DOCTYPE svg PUBLIC "-//W3C//DTD SVG 1.1//EN" "http://www.w3.org/Graphics/SVG/1.1/DTD/svg11.dtd"><svg t="1556339460647" class="icon" style="" viewBox="0 0 1024 1024" version="1.1" xmlns="http://www.w3.org/2000/svg" p-id="3065" xmlns:xlink="http://www.w3.org/1999/xlink" width="200" height="200"><defs><style type="text/css"></style></defs><path d="M780.84635 478.613581 780.84635 77.18713C780.84635 34.539385 746.159529 0 703.371167 0L87.13556 0C44.29482 0 9.660377 34.557855 9.660377 77.18713L9.660377 751.182539C9.660377 793.830284 44.347199 828.369669 87.13556 828.369669L470.837055 828.369669C469.42548 816.294274 468.699638 804.008747 468.699638 791.553237 468.699638 618.721435 608.452492 478.613581 780.84635 478.613581ZM780.82104 582.242787C664.910964 582.242787 570.560396 676.122585 570.560396 791.558724 570.560396 906.979521 664.912065 1000.82205 780.82104 1000.82205 896.792731 1000.82205 991.122393 906.964181 991.122393 791.558724 991.122393 676.122585 896.792731 582.242787 780.82104 582.242787L780.82104 582.242787 780.82104 582.242787ZM780.82104 1024C652.098116 1024 547.353078 919.749632 547.353078 791.558724 547.353078 663.383156 652.098116 559.106473 780.82104 559.106473 909.617693 559.106473 1014.339623 663.35686 1014.339623 791.558724 1014.339623 919.723336 909.616592 1024 780.82104 1024L780.82104 1024 780.82104 1024ZM143.029557 580.777868 333.202413 580.777868 333.202413 659.757558 143.029557 659.757558 143.029557 580.777868 143.029557 580.777868ZM143.029557 408.256976 493.741694 408.256976 493.741694 487.132566 143.029557 487.132566 143.029557 408.256976 143.029557 408.256976ZM304.830309 236.691495 647.477171 236.691495 647.477171 315.530936 304.830309 315.530936 304.830309 236.691495 304.830309 236.691495ZM711.032832 923.358788 684.308577 898.743315 777.314014 803.140028 777.314014 659.757558 813.137147 659.757558 813.137147 821.746804 711.032832 923.358788Z" p-id="3066"></path></svg>