<?xml version="1.0" standalone="no"?><!DOCTYPE svg PUBLIC "-//W3C//DTD SVG 1.1//EN"
        "http://www.w3.org/Graphics/SVG/1.1/DTD/svg11.dtd">
<svg t="1554367531669" class="icon" style="" viewBox="0 0 1024 1024" version="1.1" xmlns="http://www.w3.org/2000/svg"
     p-id="2756" xmlns:xlink="http://www.w3.org/1999/xlink" width="200" height="200">
    <defs>
        <style type="text/css"></style>
    </defs>
    <path d="M542 939.1H198.3c-54.3 0-98.5-44.2-98.5-98.5V216c0-54.3 44.2-98.5 98.5-98.5h599.2c54.3 0 98.5 44.2 98.5 98.5v331.5c0 8.6-7 15.6-15.6 15.6s-15.6-7-15.6-15.6V216c0-37.1-30.2-67.2-67.3-67.2H198.3c-37.1 0-67.2 30.2-67.2 67.2v624.7c0 37.1 30.2 67.2 67.2 67.2H542c8.6 0 15.6 7 15.6 15.6s-7 15.6-15.6 15.6z"
          p-id="2757"></path>
    <path d="M370.5 211.8c-12.9 0-23.4-10.5-23.4-23.4V65.1c0-12.9 10.5-23.4 23.4-23.4s23.4 10.5 23.4 23.4v123.3c0 12.9-10.5 23.4-23.4 23.4zM676.4 211.8c-12.9 0-23.4-10.5-23.4-23.4V65.1c0-12.9 10.5-23.4 23.4-23.4 12.9 0 23.4 10.5 23.4 23.4v123.3c0.1 12.9-10.4 23.4-23.4 23.4zM755 463.5H266.3c-6.5 0-11.7-5.2-11.7-11.7s5.2-11.7 11.7-11.7H755c6.5 0 11.7 5.2 11.7 11.7s-5.2 11.7-11.7 11.7zM510.7 688.8H266.3c-6.5 0-11.7-5.2-11.7-11.7s5.2-11.7 11.7-11.7h244.3c6.5 0 11.7 5.2 11.7 11.7s-5.1 11.7-11.6 11.7zM780.7 986.4c-97.6 0-177.1-79.4-177.1-177.1s79.4-177 177.1-177 177.1 79.4 177.1 177.1-79.5 177-177.1 177z m0-322.9c-80.4 0-145.9 65.4-145.9 145.9s65.4 145.9 145.9 145.9 145.9-65.4 145.9-145.9-65.5-145.9-145.9-145.9z"
          p-id="2758"></path>
    <path d="M785.7 843.8h-59.3c-8.6 0-15.6-7-15.6-15.6s7-15.6 15.6-15.6h57.7v-65.1c0-8.6 7-15.6 15.6-15.6s15.6 7 15.6 15.6v66.8c0 16.2-13.3 29.5-29.6 29.5z"
          p-id="2759"></path>
</svg>
