<?xml version="1.0" standalone="no"?><!DOCTYPE svg PUBLIC "-//W3C//DTD SVG 1.1//EN" "http://www.w3.org/Graphics/SVG/1.1/DTD/svg11.dtd"><svg t="1556364494175" class="icon" style="" viewBox="0 0 1024 1024" version="1.1" xmlns="http://www.w3.org/2000/svg" p-id="5304" xmlns:xlink="http://www.w3.org/1999/xlink" width="200" height="200"><defs><style type="text/css"></style></defs><path d="M753.152 253.44c-10.24-104.96-99.328-185.856-205.824-185.856-111.616 0-203.264 88.576-207.36 198.656-23.552-9.728-48.64-14.848-74.24-14.848-109.056 0-197.632 88.576-197.632 197.632 0 95.232 66.56 174.08 156.16 192.512 2.56 0.512 4.608 1.024 7.168 1.536l9.216 1.536 13.824 1.536h2.048c1.024 0.512 1.536 0.512 2.56 0.512h485.376c112.128-2.048 203.264-90.112 203.264-196.608 1.024-103.936-86.016-190.464-194.56-196.608z m-9.216 376.32H267.264c-3.072 0-6.144-0.512-9.216-0.512-4.608 0-8.704-0.512-12.8-1.024-3.072-0.512-6.656-1.024-9.728-1.536-2.048-0.512-3.584-0.512-5.632-1.024C148.48 608.768 87.04 536.576 87.04 450.048c0-99.328 80.896-179.712 179.712-179.712 55.296 0 107.008 25.088 141.312 68.608 3.072 3.584 8.192 4.096 11.776 1.536 3.584-3.072 4.096-8.192 1.536-11.776-17.92-22.528-39.936-40.448-65.024-53.248v-1.536c0-104.448 85.504-189.44 190.464-189.44 100.352 0 183.808 77.824 189.952 177.664 0.512 4.096 3.584 7.68 8.192 7.68 102.912 2.048 186.368 82.944 186.368 180.224 0.512 97.792-83.968 178.688-187.392 179.712z" fill="#222222" p-id="5305"></path><path d="M329.216 724.992m-33.792 0a33.792 33.792 0 1 0 67.584 0 33.792 33.792 0 1 0-67.584 0Z" fill="#222222" p-id="5306"></path><path d="M475.648 764.416m-32.768 0a32.768 32.768 0 1 0 65.536 0 32.768 32.768 0 1 0-65.536 0Z" fill="#222222" p-id="5307"></path><path d="M500.736 906.24m-32.768 0a32.768 32.768 0 1 0 65.536 0 32.768 32.768 0 1 0-65.536 0Z" fill="#222222" p-id="5308"></path><path d="M626.176 857.088m-32.768 0a32.768 32.768 0 1 0 65.536 0 32.768 32.768 0 1 0-65.536 0Z" fill="#222222" p-id="5309"></path><path d="M568.832 769.536m-16.896 0a16.896 16.896 0 1 0 33.792 0 16.896 16.896 0 1 0-33.792 0Z" fill="#222222" p-id="5310"></path><path d="M640.512 936.96m-16.896 0a16.896 16.896 0 1 0 33.792 0 16.896 16.896 0 1 0-33.792 0Z" fill="#222222" p-id="5311"></path><path d="M407.04 824.832m-16.896 0a16.896 16.896 0 1 0 33.792 0 16.896 16.896 0 1 0-33.792 0Z" fill="#222222" p-id="5312"></path><path d="M338.432 904.704m-32.768 0a32.768 32.768 0 1 0 65.536 0 32.768 32.768 0 1 0-65.536 0Z" fill="#222222" p-id="5313"></path><path d="M655.36 706.56m-32.768 0a32.768 32.768 0 1 0 65.536 0 32.768 32.768 0 1 0-65.536 0Z" fill="#222222" p-id="5314"></path></svg>